<?xml version="1.0" encoding="utf-8"?>
<!-- Generator: Adobe Illustrator 16.2.0, SVG Export Plug-In . SVG Version: 6.00 Build 0)  -->
<!DOCTYPE svg PUBLIC "-//W3C//DTD SVG 1.1//EN" "http://www.w3.org/Graphics/SVG/1.1/DTD/svg11.dtd" [
	<!ENTITY ns_extend "http://ns.adobe.com/Extensibility/1.0/">
	<!ENTITY ns_ai "http://ns.adobe.com/AdobeIllustrator/10.0/">
	<!ENTITY ns_graphs "http://ns.adobe.com/Graphs/1.0/">
	<!ENTITY ns_vars "http://ns.adobe.com/Variables/1.0/">
	<!ENTITY ns_imrep "http://ns.adobe.com/ImageReplacement/1.0/">
	<!ENTITY ns_sfw "http://ns.adobe.com/SaveForWeb/1.0/">
	<!ENTITY ns_custom "http://ns.adobe.com/GenericCustomNamespace/1.0/">
	<!ENTITY ns_adobe_xpath "http://ns.adobe.com/XPath/1.0/">
]>
<svg version="1.1" id="Warstwa_1" xmlns:x="&ns_extend;" xmlns:i="&ns_ai;" xmlns:graph="&ns_graphs;"
	 xmlns="http://www.w3.org/2000/svg" xmlns:xlink="http://www.w3.org/1999/xlink" x="0px" y="0px" width="158.578px"
	 height="12.932px" viewBox="0 0 158.578 12.932" enable-background="new 0 0 158.578 12.932" xml:space="preserve">
<metadata>
	<sfw  xmlns="&ns_sfw;">
		<slices></slices>
		<sliceSourceBounds  width="158.579" height="12.932" x="0" y="0" bottomLeftOrigin="true"></sliceSourceBounds>
	</sfw>
</metadata>
<g>
	<defs>
		<rect id="SVGID_1_" width="158.578" height="12.932"/>
	</defs>
	<clipPath id="SVGID_2_">
		<use xlink:href="#SVGID_1_"  overflow="visible"/>
	</clipPath>
	<path clip-path="url(#SVGID_2_)" d="M4.786,12.604H0V0.312h4.786c3.262,0.016,5.901,2.77,5.901,6.146
		C10.687,9.851,8.048,12.588,4.786,12.604 M7.638,9.769C8.425,8.884,8.867,7.72,8.867,6.458c0-1.246-0.442-2.426-1.229-3.294
		C6.868,2.295,5.834,1.82,4.753,1.82H1.819v9.276h2.934C5.834,11.096,6.868,10.637,7.638,9.769"/>
	<path clip-path="url(#SVGID_2_)" d="M19.462,8.704l2.639,3.901h-2.016l-2.409-3.574h-2.869v3.574h-1.819V9.031V7.524V1.82V0.312
		h1.819h2.951c2.409,0.017,4.343,1.885,4.343,4.36C22.101,6.54,21.019,8.047,19.462,8.704 M14.807,7.524h2.934
		c1.393,0,2.54-1.18,2.54-2.852c0-1.655-1.147-2.852-2.54-2.852h-2.934V7.524z"/>
	<polygon clip-path="url(#SVGID_2_)" points="33.056,11.096 33.056,12.604 24.566,12.604 24.566,0.312 32.744,0.312 32.744,1.819 
		26.385,1.819 26.385,5.458 31.581,5.458 31.581,6.983 26.385,6.983 26.385,11.096 	"/>
	<path clip-path="url(#SVGID_2_)" d="M43.567,10.654c-0.59,1.394-2.245,2.263-4.311,2.278c-1.786,0-3.408-0.787-4.556-2.032
		l1.213-1.213C35.979,9.802,36.062,9.9,36.159,10c0.819,0.917,1.934,1.426,3.097,1.426c1.426-0.018,2.262-0.541,2.607-1.361
		c0.262-0.605,0.049-1.262,0.032-1.278c-0.344-0.95-1.294-1.327-2.639-1.737c-1.524-0.458-3.277-1-3.851-2.606
		c-0.311-0.836-0.23-1.803,0.197-2.589C36.553,0.05,38.979,0,39.256,0c1.803,0,3.41,0.787,4.557,2.049l-1.196,1.197
		c-0.082-0.115-0.164-0.213-0.262-0.312c-0.837-0.917-1.935-1.426-3.099-1.426c-0.016,0-1.458,0-2.015,1.049
		c-0.213,0.41-0.263,0.951-0.115,1.377c0.328,0.901,1.262,1.278,2.573,1.672c1.557,0.475,3.311,1,3.934,2.655
		C43.682,8.376,44.075,9.49,43.567,10.654"/>
	<path clip-path="url(#SVGID_2_)" d="M54.669,10.654c-0.59,1.394-2.245,2.263-4.31,2.278c-1.787,0-3.41-0.787-4.557-2.032
		l1.213-1.213C47.081,9.802,47.163,9.9,47.261,10c0.819,0.917,1.934,1.426,3.098,1.426c1.425-0.018,2.261-0.541,2.606-1.361
		c0.262-0.605,0.049-1.262,0.032-1.278c-0.344-0.95-1.294-1.327-2.638-1.737c-1.525-0.458-3.278-1-3.852-2.606
		c-0.311-0.836-0.23-1.803,0.197-2.589C47.655,0.05,50.08,0,50.359,0c1.802,0,3.409,0.787,4.556,2.049l-1.196,1.197
		c-0.082-0.115-0.164-0.213-0.262-0.312c-0.837-0.917-1.935-1.426-3.098-1.426c-0.017,0-1.459,0-2.016,1.049
		c-0.213,0.41-0.263,0.951-0.115,1.377c0.328,0.901,1.262,1.278,2.573,1.672c1.557,0.475,3.311,1,3.934,2.655
		C54.784,8.376,55.177,9.49,54.669,10.654"/>
	<polygon clip-path="url(#SVGID_2_)" points="71.541,0.312 71.541,12.605 69.721,12.605 69.721,3.377 64.984,12.605 63.953,12.605 
		59.215,3.377 59.215,12.605 57.396,12.605 57.396,0.312 57.642,0.312 59.592,0.312 64.459,9.818 69.329,0.312 71.278,0.312 	"/>
	<path clip-path="url(#SVGID_2_)" d="M84.236,12.604h-1.968L81.04,9.392h-4.835l-1.213,3.212h-1.967l5.048-12.292h1.115
		L84.236,12.604z M80.466,7.884L78.63,3.033l-1.851,4.851H80.466z"/>
	<polygon clip-path="url(#SVGID_2_)" points="91.044,5.393 97.092,12.605 94.551,12.605 89.65,6.557 87.863,8.048 87.863,12.605 
		86.045,12.605 86.045,0.312 87.863,0.312 87.863,5.917 94.42,0.312 97.092,0.312 	"/>
	<polygon clip-path="url(#SVGID_2_)" points="107.883,11.096 107.883,12.604 99.394,12.604 99.394,0.312 107.571,0.312 
		107.571,1.819 101.212,1.819 101.212,5.458 106.408,5.458 106.408,6.983 101.212,6.983 101.212,11.096 	"/>
	<path clip-path="url(#SVGID_2_)" d="M116.494,8.704l2.639,3.901h-2.016l-2.409-3.574h-2.869v3.574h-1.819V9.031V7.524V1.82V0.312
		h1.819h2.951c2.408,0.017,4.343,1.885,4.343,4.36C119.133,6.54,118.051,8.047,116.494,8.704 M111.839,7.524h2.934
		c1.394,0,2.54-1.18,2.54-2.852c0-1.655-1.146-2.852-2.54-2.852h-2.934V7.524z"/>
	<path clip-path="url(#SVGID_2_)" d="M123.204,2.77l-1.541,2.229h-0.558l0.607-1.868c-0.361-0.197-0.607-0.574-0.607-1.033
		c0-0.623,0.509-1.13,1.131-1.13c0.655,0,1.164,0.507,1.164,1.13C123.4,2.36,123.335,2.59,123.204,2.77"/>
	<path clip-path="url(#SVGID_2_)" d="M133.908,10.654c-0.59,1.394-2.245,2.263-4.31,2.278c-1.787,0-3.41-0.787-4.558-2.032
		l1.213-1.213C126.32,9.802,126.402,9.9,126.5,10c0.819,0.917,1.935,1.426,3.099,1.426c1.425-0.018,2.261-0.541,2.605-1.361
		c0.262-0.605,0.049-1.262,0.032-1.278c-0.344-0.95-1.294-1.327-2.638-1.737c-1.525-0.458-3.278-1-3.853-2.606
		c-0.311-0.836-0.229-1.803,0.197-2.589C126.895,0.05,129.319,0,129.599,0c1.802,0,3.407,0.787,4.556,2.049l-1.196,1.197
		c-0.082-0.115-0.164-0.213-0.262-0.312c-0.837-0.917-1.935-1.426-3.098-1.426c-0.018,0-1.459,0-2.017,1.049
		c-0.213,0.41-0.263,0.951-0.114,1.377c0.327,0.901,1.262,1.278,2.572,1.672c1.558,0.475,3.312,1,3.935,2.655
		C134.023,8.376,134.416,9.49,133.908,10.654"/>
	<path clip-path="url(#SVGID_2_)" fill="#CE5D5C" d="M147.194,8.175h-1.746v1.921h-1.087V2.819h2.833
		c1.417,0.01,2.562,1.203,2.562,2.678C149.756,6.972,148.611,8.166,147.194,8.175 M148.68,5.498c0-0.98-0.671-1.785-1.505-1.785
		h-1.727v3.571h1.727C148.009,7.284,148.68,6.478,148.68,5.498"/>
	<rect x="150.337" y="2.82" clip-path="url(#SVGID_2_)" fill="#CE5D5C" width="1.077" height="7.277"/>
	<polygon clip-path="url(#SVGID_2_)" fill="#CE5D5C" points="158.578,10.097 157.278,10.097 153.377,4.304 153.377,10.097 
		152.29,10.097 152.29,2.82 153.592,2.82 157.501,8.612 157.501,2.82 158.578,2.82 	"/>
	<polygon clip-path="url(#SVGID_2_)" fill="#CE5D5C" points="144.768,9.883 144.972,9.546 144.972,3.526 144.69,3.124 
		144.724,6.037 138.317,6.431 144.674,6.795 	"/>
</g>
</svg>
